<?xml version="1.0" standalone="no"?>
<!DOCTYPE svg PUBLIC "-//W3C//DTD SVG 20010904//EN"
 "http://www.w3.org/TR/2001/REC-SVG-20010904/DTD/svg10.dtd">
<svg version="1.0" xmlns="http://www.w3.org/2000/svg"
 width="500.000000pt" height="500.000000pt" viewBox="0 0 500.000000 500.000000"
 preserveAspectRatio="xMidYMid meet">

<g transform="translate(0.000000,500.000000) scale(0.100000,-0.100000)"
fill="#000000" stroke="none">
<path d="M0 2500 l0 -2500 2500 0 2500 0 0 2500 0 2500 -2500 0 -2500 0 0
-2500z m2540 963 c0 -32 4 -43 15 -43 8 0 15 -3 15 -7 0 -5 -36 -7 -80 -5
l-80 4 0 -31 c0 -23 5 -31 18 -31 14 0 16 -8 14 -50 -4 -50 3 -61 26 -38 9 9
9 5 0 -15 -9 -19 -20 -27 -38 -26 -14 0 -19 3 -12 6 18 7 16 97 -3 113 -8 7
-15 27 -15 45 0 20 6 35 15 39 10 3 15 19 15 43 l0 38 55 0 55 0 0 -42z m16
-118 c-10 -8 -24 -11 -30 -8 -6 4 0 10 14 14 36 10 37 10 16 -6z m-16 -46 c0
-11 -4 -17 -10 -14 -6 4 -17 1 -25 -5 -23 -19 -17 -3 7 20 27 25 28 25 28 -1z
m24 -75 c9 -3 16 -11 16 -16 0 -7 -4 -7 -12 0 -7 6 -26 12 -43 15 -29 4 -29 4
-3 6 14 0 33 -2 42 -5z m-151 -95 c7 0 46 0 87 1 74 1 74 1 56 -19 -10 -11
-22 -18 -26 -16 -4 3 -28 -11 -54 -31 -39 -29 -46 -40 -46 -69 0 -18 4 -35 9
-37 5 -1 3 -12 -5 -22 -12 -18 -14 -9 -13 75 1 52 4 84 6 72 6 -29 20 -28 58
2 l30 25 -56 0 c-64 0 -70 6 -67 73 l2 42 3 -47 c3 -28 9 -48 16 -49z m137
-120 c0 -6 -6 -9 -14 -6 -7 3 -20 0 -27 -6 -11 -10 -11 -9 0 6 15 19 41 23 41
6z m0 -90 c0 -11 -5 -17 -10 -14 -6 3 -25 -3 -43 -15 -27 -18 -26 -16 8 14 22
20 41 36 43 36 1 0 2 -9 2 -21z m-109 -60 c6 -3 3 -11 -6 -19 -13 -11 -15 -7
-14 31 1 28 3 35 6 19 3 -14 9 -28 14 -31z m109 -39 c0 -13 -5 -18 -15 -14 -8
3 -33 -10 -58 -30 -49 -40 -57 -43 -57 -21 0 8 6 12 13 10 6 -3 35 13 62 35
28 22 51 40 53 40 1 0 2 -9 2 -20z m0 -97 c0 -9 -3 -13 -7 -10 -3 4 -18 0 -32
-9 -22 -13 -21 -11 4 10 36 31 35 31 35 9z m115 -4 l7 -21 24 23 c29 27 39 21
23 -15 -9 -20 -9 -32 -1 -51 16 -34 15 -45 -2 -45 -8 0 -18 9 -21 21 -7 22
-30 21 -30 -2 0 -7 -8 -15 -17 -17 -16 -3 -18 5 -18 56 0 32 3 62 7 65 12 12
22 7 28 -14z m279 0 c15 -23 12 -73 -7 -96 -13 -17 -82 -16 -96 1 -16 20 -11
95 8 106 30 17 79 11 95 -11z m136 8 c9 -7 16 -27 15 -46 0 -29 4 -36 24 -41
42 -10 37 -30 -6 -30 -52 0 -63 14 -63 77 0 55 4 61 30 40z m197 -7 c7 -25 11
-25 32 2 25 30 48 15 26 -18 -14 -22 -14 -27 0 -54 19 -36 19 -40 0 -40 -8 0
-22 12 -32 27 l-17 26 -6 -24 c-8 -34 -34 -31 -38 5 -8 66 21 129 35 76z m279
-35 c13 -31 24 -60 24 -65 0 -15 -27 -12 -33 4 -6 14 -53 11 -63 -5 -3 -5 -9
-9 -15 -9 -12 0 -12 47 0 54 5 3 12 18 16 33 6 27 21 43 38 43 4 0 19 -25 33
-55z m234 47 c0 -5 -8 -17 -18 -28 -11 -11 -18 -33 -18 -54 1 -25 -3 -35 -14
-35 -11 0 -16 13 -18 44 -3 33 -8 44 -23 48 -20 5 -24 15 -12 26 9 10 103 9
103 -1z m206 -47 c13 -31 24 -60 24 -65 0 -15 -27 -12 -33 4 -6 14 -53 11 -63
-5 -3 -5 -9 -9 -15 -9 -12 0 -12 47 0 54 5 3 12 18 16 33 6 27 21 43 38 43 4
0 19 -25 33 -55z m-1565 -38 c-13 -13 -26 -3 -16 12 3 6 11 8 17 5 6 -4 6 -10
-1 -17z m119 -12 c0 -8 -5 -15 -10 -15 -18 0 -119 -80 -123 -98 -3 -9 -5 -2
-6 16 0 18 3 31 8 28 5 -3 24 5 42 19 19 13 44 30 57 36 12 7 22 16 22 21 0 4
2 8 5 8 3 0 5 -7 5 -15z m10 -100 c0 -8 -7 -15 -16 -15 -9 0 -30 -10 -47 -21
-25 -17 -24 -14 8 15 44 39 55 43 55 21z m-138 -105 c-2 -47 1 -60 12 -60 8 0
17 4 21 10 3 5 20 19 38 30 l32 22 -31 -29 c-17 -15 -43 -38 -57 -50 l-27 -23
0 87 c0 47 3 83 7 79 4 -4 6 -34 5 -66z m137 -7 c-1 -30 -4 -37 -6 -20 -2 15
-9 27 -14 27 -5 0 -4 9 3 20 7 11 14 20 15 20 2 0 2 -21 2 -47z m1 -78 c0 -17
-4 -23 -15 -19 -11 5 -12 10 -2 25 15 25 17 24 17 -6z m-45 -25 c-3 -5 -16
-15 -28 -21 -19 -9 -19 -8 3 10 28 23 34 26 25 11z m-65 -46 c0 0 -9 -9 -20
-19 -19 -18 -20 -17 -20 1 0 13 7 20 20 20 11 0 20 -1 20 -2z m115 -34 c-4 -6
-12 -9 -18 -7 -7 2 -34 -13 -61 -34 -27 -22 -52 -39 -56 -39 -4 0 -12 -10 -18
-22 l-11 -23 0 23 c-1 15 7 26 22 31 12 5 47 29 77 54 30 25 59 41 64 37 4 -5
5 -13 1 -20z m5 -69 c0 -35 -2 -39 -24 -37 -25 1 -25 1 -5 22 10 11 19 28 19
37 0 9 2 17 5 17 3 0 5 -18 5 -39z m34 -177 c13 -5 -27 -9 -103 -11 -68 -2
-126 -1 -129 2 -11 11 10 18 49 17 58 -3 136 55 140 103 1 11 6 -8 12 -42 7
-48 14 -63 31 -69z m-181 75 c4 -3 1 -12 -8 -19 -13 -11 -15 -9 -15 15 0 16 3
24 8 19 4 -5 11 -11 15 -15z m222 -118 c11 -19 -15 -21 -147 -14 l-133 8 85 6
c146 9 189 9 195 0z m19 -48 c-11 -23 -17 -207 -9 -250 3 -19 12 -33 20 -33
10 0 15 -11 15 -32 l0 -33 -86 -1 c-94 -2 -104 14 -11 17 79 3 83 19 5 20 -35
1 -76 5 -93 8 -29 7 -29 8 15 15 25 4 60 10 78 13 l32 5 0 129 0 129 -37 0
c-21 0 -49 3 -61 7 -41 10 -3 23 72 23 61 0 67 -2 60 -17z m-264 -3 c-41 -3
-82 -3 -90 2 -8 4 26 7 75 6 l90 -1 -75 -7z m151 -116 c10 -28 3 -64 -15 -76
-20 -14 -28 -8 -12 8 18 18 20 47 6 75 -8 13 -7 19 0 19 6 0 15 -12 21 -26z
m-181 -177 c8 -3 -6 -6 -32 -6 -27 -1 -48 3 -48 8 0 13 31 19 50 11 8 -4 22
-10 30 -13z"/>
<path d="M2440 3476 c0 -23 17 -28 34 -10 21 21 20 24 -9 24 -15 0 -25 -6 -25
-14z"/>
<path d="M2482 3457 c-30 -32 -28 -37 13 -37 32 0 35 2 35 30 0 36 -18 39 -48
7z"/>
<path d="M2870 2696 c0 -9 5 -16 12 -16 6 0 4 -6 -7 -13 -22 -17 -5 -32 26
-22 29 10 23 59 -8 63 -16 2 -23 -2 -23 -12z"/>
<path d="M2515 2027 c-13 -10 -15 -16 -6 -21 17 -11 41 0 41 19 0 19 -11 19
-35 2z"/>
</g>
</svg>
